<svg width="14" height="14" viewBox="0 0 14 14" fill="none" xmlns="http://www.w3.org/2000/svg">
<path fill-rule="evenodd" clip-rule="evenodd" d="M7 0C7.3797 0 7.69349 0.282154 7.74315 0.64823L7.75 0.75V5.85C7.75 6.07091 7.92909 6.25 8.15 6.25H13.25C13.6642 6.25 14 6.58579 14 7C14 7.3797 13.7178 7.69349 13.3518 7.74315L13.25 7.75H8.15C7.92909 7.75 7.75 7.92909 7.75 8.15V13.25C7.75 13.6642 7.41421 14 7 14C6.6203 14 6.30651 13.7178 6.25685 13.3518L6.25 13.25V8.15C6.25 7.92909 6.07091 7.75 5.85 7.75H0.75C0.335786 7.75 0 7.41421 0 7C0 6.6203 0.282154 6.30651 0.64823 6.25685L0.75 6.25H5.85C6.07091 6.25 6.25 6.07091 6.25 5.85V0.75C6.25 0.335786 6.58579 0 7 0Z" fill="#E21B70"/>
</svg>
