<svg width="18" height="18" viewBox="0 0 18 18" fill="none" xmlns="http://www.w3.org/2000/svg">
<path fill-rule="evenodd" clip-rule="evenodd" d="M9.00212 0C11.5418 0 13.4241 1.6512 13.5538 4.15854H16.8491C17.4014 4.15854 17.8491 4.60625 17.8491 5.15854C17.8491 5.20585 17.8457 5.25311 17.8391 5.29996L16.1248 17.1414C16.0544 17.6341 15.6325 18 15.1348 18H2.86942C2.37176 18 1.94984 17.6341 1.87947 17.1414L0.165177 5.29996C0.0870718 4.75322 0.466971 4.24669 1.0137 4.16859C1.06055 4.16189 1.10781 4.15854 1.15513 4.15854L4.36129 4.16397C4.49108 1.65663 6.46248 0 9.00212 0ZM14.5607 14.25H3.44235C3.22143 14.25 3.04235 14.4291 3.04235 14.65C3.04235 14.669 3.04369 14.6879 3.04638 14.7067L3.25397 16.1567C3.28217 16.3537 3.45092 16.5 3.64993 16.5H14.3533C14.5523 16.5 14.7211 16.3537 14.7492 16.1566L14.9567 14.7066C14.988 14.488 14.836 14.2853 14.6174 14.254C14.5986 14.2513 14.5797 14.25 14.5607 14.25ZM15.8109 5.65854H2.19233C1.97142 5.65854 1.79233 5.83762 1.79233 6.05854C1.79233 6.32251 1.79367 6.09637 1.79635 6.11511L2.71793 12.4066C2.74609 12.6036 2.91486 12.75 3.11391 12.75H14.8891C15.0882 12.75 15.2569 12.6036 15.2851 12.4066L16.2069 6.11513C16.2381 5.89643 16.0862 5.69381 15.8675 5.66256C15.8487 5.65988 15.8298 5.65854 15.8109 5.65854ZM9.00212 1.40323C7.41633 1.40323 6.15495 2.32251 5.91234 3.80175C5.88507 3.96802 5.98943 4.12701 6.15495 4.15854C6.17377 4.16212 6.19289 4.16392 6.21204 4.1639L11.7134 4.15847C11.8772 4.15843 12.0099 4.02566 12.0099 3.86189C12.0099 3.84361 11.9631 3.82209 12.0049 3.80742C11.655 2.32251 10.5918 1.40323 9.00212 1.40323Z" fill="#E21B70"/>
</svg>
