<svg width="137" height="29" viewBox="0 0 137 29" fill="none" xmlns="http://www.w3.org/2000/svg">
<g clip-path="url(#clip0_553_15)">
<path fill-rule="evenodd" clip-rule="evenodd" d="M7.22328 0C4.08916 0 2.51537 1.92053 2.51537 4.80133V7.17455H0.0134583V10.0553H2.52882V22.2233H5.66294V10.0553H8.79706V7.17455H5.66294V4.48581C5.66294 3.52554 6.13373 2.8808 7.07531 2.8808L8.79706 3.19631V0.315521L7.22328 0ZM24.6291 14.7058C24.6291 10.0553 21.0107 6.85904 16.935 6.85904C12.8459 6.85904 9.24095 10.0553 9.24095 14.7058C9.24095 19.3562 12.8593 22.5525 16.935 22.5525C21.0242 22.5525 24.6291 19.3425 24.6291 14.7058ZM21.4815 14.6921C21.4815 17.4219 19.9212 19.658 16.935 19.658C13.9489 19.658 12.3751 17.4219 12.3884 14.6921C12.3884 11.9622 13.9489 9.72611 16.935 9.72611C19.9077 9.72611 21.4815 11.9759 21.4815 14.6921ZM41.3892 14.7058C41.3892 10.0553 37.7709 6.85904 33.6952 6.85904C29.606 6.85904 26.0011 10.0553 26.0011 14.7058C26.0011 19.3562 29.6195 22.5525 33.6952 22.5525C37.7843 22.5525 41.3892 19.3425 41.3892 14.7058ZM38.2416 14.6921C38.2416 17.4219 36.6813 19.658 33.6952 19.658C30.709 19.658 29.1352 17.4219 29.1486 14.6921C29.1486 11.9622 30.709 9.72611 33.6952 9.72611C36.6679 9.72611 38.2416 11.9759 38.2416 14.6921ZM54.6924 20.9475L55.0018 22.2233H57.8265V0.0137212H54.6924V8.46405L54.531 8.62867L54.3696 8.46405C53.428 7.50378 51.8273 6.85904 50.2939 6.85904C46.2182 6.85904 42.7612 10.0691 42.7612 14.7058C42.7612 19.3562 46.2182 22.5525 50.2939 22.5525C51.8542 22.5525 53.428 21.9078 54.3696 20.9475L54.531 20.7829L54.6924 20.9475ZM45.8684 14.7058C45.8684 11.9759 47.4691 9.73983 50.4553 9.73983C53.1186 9.73983 55.0018 11.9759 55.0018 14.7058C55.0018 17.4357 53.1186 19.6717 50.4553 19.6717C47.4691 19.6717 45.8684 17.4219 45.8684 14.7058ZM64.0813 8.45033L63.7988 7.17455H60.9741V29H64.0813V20.9338L64.2696 20.7692L64.431 20.9338C65.3726 21.894 66.9733 22.5388 68.5067 22.5388C72.5824 22.5388 76.0394 19.3288 76.0394 14.6921C76.0394 10.0416 72.5824 6.84531 68.5067 6.84531C66.9464 6.84531 65.3726 7.49007 64.431 8.45033L64.2696 8.61495L64.0813 8.45033ZM72.8918 14.6921C72.8918 17.4219 71.3315 19.658 68.3453 19.658C65.682 19.658 63.7988 17.4219 63.7988 14.6921C63.7988 11.9622 65.682 9.72611 68.3453 9.72611C71.318 9.72611 72.8918 11.9759 72.8918 14.6921ZM83.6258 9.57521C85.3072 9.57521 86.5178 10.412 86.5178 12.2228V12.8813H83.9487C80.0747 12.8813 77.5056 14.7469 77.5056 17.8609C77.5056 20.8789 79.456 22.4702 82.0789 22.4702C84.1235 22.4702 85.657 21.7157 86.6927 20.2342L86.9886 22.2233H89.5847V12.799C89.5847 8.79328 87.6074 6.80416 83.6527 6.80416C80.8145 6.80416 78.6624 8.42289 78.0436 10.9882L80.8549 11.5918C81.3526 10.2337 82.2673 9.57521 83.6258 9.57521ZM85.3341 18.6977C84.5674 19.3562 83.6527 19.6854 82.617 19.6854C81.4064 19.6854 80.7473 18.9309 80.7607 17.8472C80.7607 16.4068 81.931 15.5014 83.8276 15.5014H86.5178V15.8307C86.5178 17.0653 86.1277 17.9981 85.3341 18.6977ZM95.6108 8.45033L95.3015 7.17455H92.4901V22.2096H95.6242V13.1145C95.6916 11.2625 97.225 9.72611 99.0812 9.72611C101.153 9.72611 102.121 10.8784 102.215 12.9224V22.2096H105.349V12.9224C105.349 9.4106 103.157 6.84531 99.3906 6.84531C98.1262 6.84531 96.5659 7.49007 95.9336 8.45033L95.7722 8.61495L95.6108 8.45033ZM119.298 20.9475L119.608 22.2233H122.432V0.0137212H119.298V8.46405L119.137 8.62867L118.975 8.46405C118.034 7.50378 116.433 6.85904 114.9 6.85904C110.824 6.85904 107.367 10.0691 107.367 14.7058C107.367 19.3562 110.824 22.5525 114.9 22.5525C116.46 22.5525 118.034 21.9078 118.975 20.9475L119.137 20.7829L119.298 20.9475ZM110.474 14.7058C110.474 11.9759 112.075 9.73983 115.061 9.73983C117.725 9.73983 119.608 11.9759 119.608 14.7058C119.608 17.4357 117.725 19.6717 115.061 19.6717C112.075 19.6717 110.474 17.4219 110.474 14.7058ZM131.041 9.57521C132.723 9.57521 133.933 10.412 133.933 12.2228V12.8813H131.364C127.49 12.8813 124.921 14.7469 124.921 17.8609C124.921 20.8789 126.871 22.4702 129.494 22.4702C131.539 22.4702 133.072 21.7157 134.108 20.2342L134.404 22.2233H137V12.799C137 8.79328 135.023 6.80416 131.068 6.80416C128.23 6.80416 126.078 8.42289 125.459 10.9882L128.27 11.5918C128.768 10.2337 129.683 9.57521 131.041 9.57521ZM132.749 18.6977C131.983 19.3562 131.068 19.6854 130.032 19.6854C128.822 19.6854 128.176 18.9309 128.176 17.8472C128.176 16.4068 129.346 15.5014 131.243 15.5014H133.933V15.8307C133.933 17.0653 133.543 17.9981 132.749 18.6977Z" fill="#FF2B85"/>
</g>
<defs>
<clipPath id="clip0_553_15">
<rect width="137" height="29" fill="white"/>
</clipPath>
</defs>
</svg>
