<svg width="18" height="18" viewBox="0 0 18 18" fill="none" xmlns="http://www.w3.org/2000/svg">
<path d="M8.25 12C8.25 12.4142 8.58579 12.75 9 12.75C9.41421 12.75 9.75 12.4142 9.75 12V9.75H12C12.4142 9.75 12.75 9.41421 12.75 9C12.75 8.58579 12.4142 8.25 12 8.25H9.75V6C9.75 5.58579 9.41421 5.25 9 5.25C8.58579 5.25 8.25 5.58579 8.25 6V8.25H6C5.58579 8.25 5.25 8.58579 5.25 9C5.25 9.41421 5.58579 9.75 6 9.75H8.25V12Z" fill="#E21B70"/>
<path fill-rule="evenodd" clip-rule="evenodd" d="M8.99999 0.0500488C4.05704 0.0500488 0.0499878 4.0571 0.0499878 9.00005C0.0499878 13.943 4.05704 17.95 8.99999 17.95C13.9429 17.95 17.95 13.943 17.95 9.00005C17.95 4.0571 13.9429 0.0500488 8.99999 0.0500488ZM1.54999 9.00005C1.54999 4.88553 4.88547 1.55005 8.99999 1.55005C13.1145 1.55005 16.45 4.88553 16.45 9.00005C16.45 13.1146 13.1145 16.45 8.99999 16.45C4.88547 16.45 1.54999 13.1146 1.54999 9.00005Z" fill="#E21B70"/>
</svg>
