<svg width="24" height="24" viewBox="0 0 24 24" fill="none" xmlns="http://www.w3.org/2000/svg">
<path fill-rule="evenodd" clip-rule="evenodd" d="M12.0024 2C14.542 2 16.4243 3.6512 16.5541 6.15854H19.8494C20.4017 6.15854 20.8494 6.60625 20.8494 7.15854C20.8494 7.20585 20.846 7.25311 20.8393 7.29996L19.125 19.1414C19.0547 19.6341 18.6327 20 18.1351 20H5.86969C5.37204 20 4.95012 19.6341 4.87974 19.1414L3.16545 7.29996C3.08735 6.75322 3.46725 6.24669 4.01398 6.16859C4.06082 6.16189 4.10808 6.15854 4.1554 6.15854L7.36156 6.16397C7.49136 3.65663 9.46276 2 12.0024 2ZM17.561 16.25H6.44262C6.22171 16.25 6.04262 16.4291 6.04262 16.65C6.04262 16.669 6.04397 16.6879 6.04666 16.7067L6.25424 18.1567C6.28245 18.3537 6.45119 18.5 6.65021 18.5H17.3535C17.5526 18.5 17.7213 18.3537 17.7495 18.1566L17.957 16.7066C17.9882 16.488 17.8363 16.2853 17.6176 16.254C17.5989 16.2513 17.5799 16.25 17.561 16.25ZM18.8112 7.65854H5.19261C4.97169 7.65854 4.79261 7.83762 4.79261 8.05854C4.79261 8.32251 4.79395 8.09637 4.79663 8.11511L5.71821 14.4066C5.74636 14.6036 5.91513 14.75 6.11419 14.75H17.8894C18.0884 14.75 18.2572 14.6036 18.2854 14.4066L19.2071 8.11513C19.2384 7.89643 19.0864 7.69381 18.8678 7.66256C18.849 7.65988 18.8301 7.65854 18.8112 7.65854ZM12.0024 3.40323C10.4166 3.40323 9.15523 4.32251 8.91262 5.80175C8.88534 5.96802 8.98971 6.12701 9.15523 6.15854C9.17405 6.16212 9.19316 6.16392 9.21232 6.1639L14.7137 6.15847C14.8774 6.15843 15.0102 6.02566 15.0102 5.86189C15.0102 5.84361 14.9634 5.82209 15.0052 5.80742C14.6552 4.32251 13.5921 3.40323 12.0024 3.40323Z" fill="white"/>
</svg>
