<svg width="16" height="16" viewBox="0 0 16 16" fill="none" xmlns="http://www.w3.org/2000/svg">
<path fill-rule="evenodd" clip-rule="evenodd" d="M8 0C12.4183 0 16 3.58172 16 8C16 12.4183 12.4183 16 8 16C3.58172 16 0 12.4183 0 8C0 3.58172 3.58172 0 8 0ZM8 1.5C4.41015 1.5 1.5 4.41015 1.5 8C1.5 11.5899 4.41015 14.5 8 14.5C11.5899 14.5 14.5 11.5899 14.5 8C14.5 4.41015 11.5899 1.5 8 1.5ZM10.4749 6.58579L9.3435 7.71716C9.18729 7.87337 9.18729 8.12663 9.3435 8.28284L10.4749 9.41421C10.7678 9.70711 10.7678 10.182 10.4749 10.4749C10.182 10.7678 9.70711 10.7678 9.41421 10.4749L8.28284 9.3435C8.12663 9.18729 7.87337 9.18729 7.71716 9.3435L6.58579 10.4749C6.29289 10.7678 5.81802 10.7678 5.52513 10.4749C5.23223 10.182 5.23223 9.70711 5.52513 9.41421L6.6565 8.28284C6.81271 8.12663 6.81271 7.87337 6.6565 7.71716L5.52513 6.58579C5.23223 6.29289 5.23223 5.81802 5.52513 5.52513C5.81802 5.23223 6.29289 5.23223 6.58579 5.52513L7.71716 6.6565C7.87337 6.81271 8.12663 6.81271 8.28284 6.6565L9.41421 5.52513C9.70711 5.23223 10.182 5.23223 10.4749 5.52513C10.7678 5.81802 10.7678 6.29289 10.4749 6.58579Z" fill="#E21B70"/>
</svg>
