<svg width="24" height="24" viewBox="0 0 24 24" fill="none" xmlns="http://www.w3.org/2000/svg">
<path fill-rule="evenodd" clip-rule="evenodd" d="M11.7588 13.9048C15.3933 13.9048 18.2013 16.1043 19.4623 19.9403C19.5378 20.1688 19.4983 20.4198 19.3573 20.6148C19.2163 20.8098 18.9903 20.9248 18.7498 20.9248H4.74978C4.50928 20.9248 4.28328 20.8098 4.14278 20.6148C4.00128 20.4198 3.96228 20.1688 4.03778 19.9403C5.27978 16.1613 8.16628 13.9048 11.7588 13.9048ZM11.7676 3C14.5931 3 16.8926 5.299 16.8926 8.1245C16.8926 10.9505 14.5931 13.2495 11.7676 13.2495C8.94208 13.2495 6.64258 10.9505 6.64258 8.1245C6.64258 5.299 8.94208 3 11.7676 3Z" fill="pink"/>
</svg>
