<svg width="73" height="14" viewBox="0 0 73 14" fill="none" xmlns="http://www.w3.org/2000/svg">
<g clip-path="url(#clip0_307_127)">
<path fill-rule="evenodd" clip-rule="evenodd" d="M36.0767 13.9285L38.515 0H72.7412L70.3207 13.9285H36.0767ZM55.3211 3.8033C55.8087 3.8033 56.217 3.86565 56.5473 3.98887C56.8769 4.11282 57.1352 4.27909 57.3229 4.48841C57.5115 4.69772 57.6354 4.93821 57.6948 5.20914C57.7549 5.4808 57.7594 5.7636 57.7074 6.05902L57.098 9.51274C57.0557 9.75101 57.0223 9.96997 56.9964 10.1696C56.9704 10.3693 56.9511 10.5601 56.9377 10.7404H55.8132C55.8459 10.3983 55.8919 10.0553 55.952 9.71315H55.9238C55.5653 10.1511 55.1778 10.4599 54.7622 10.641C54.3458 10.8213 53.8856 10.9119 53.3793 10.9119C53.0698 10.9119 52.7826 10.8688 52.5168 10.7835C52.2504 10.6981 52.0269 10.569 51.8466 10.3983C51.6655 10.2268 51.5371 10.0153 51.4591 9.76288C51.3819 9.51126 51.373 9.21807 51.4317 8.88479C51.5089 8.44761 51.6692 8.08093 51.9134 7.78625C52.1568 7.49158 52.4619 7.25034 52.8271 7.06478C53.193 6.87922 53.6057 6.74635 54.0652 6.66545C54.5239 6.58454 55.0071 6.54446 55.5133 6.54446H56.4404L56.4909 6.25869C56.5213 6.08723 56.5183 5.91577 56.4835 5.74505C56.4478 5.57359 56.3766 5.4192 56.2697 5.28114C56.1628 5.14308 56.0188 5.03322 55.8362 4.95306C55.6536 4.87141 55.4265 4.83133 55.1548 4.83133C54.9106 4.83133 54.6939 4.85508 54.5024 4.90259C54.3109 4.95009 54.1342 5.00947 53.9717 5.08073C53.8091 5.15273 53.6584 5.23586 53.5196 5.33087C53.4396 5.38592 53.3611 5.43922 53.2846 5.49122L53.2839 5.49163C53.2286 5.52923 53.1742 5.56614 53.121 5.60253L52.5027 4.80238C52.9177 4.46985 53.3734 4.21971 53.8715 4.05344C54.3695 3.88718 54.8527 3.8033 55.3211 3.8033ZM67.7712 2.07629L67.4364 3.97499H69.2505L69.0538 5.08837H67.2405L66.6994 8.15686C66.6652 8.34762 66.637 8.53541 66.6133 8.72098C66.5902 8.90654 66.5962 9.07281 66.6311 9.22052C66.666 9.36823 66.7387 9.48625 66.8493 9.5768C66.9599 9.6681 67.1366 9.71263 67.3808 9.71263C67.5307 9.71263 67.6873 9.69853 67.8521 9.67032C68.0161 9.64138 68.1705 9.58942 68.3153 9.51297L68.1096 10.6835C67.9441 10.7696 67.7393 10.8282 67.4943 10.8616C67.2494 10.895 67.0608 10.9121 66.9302 10.9121C66.4425 10.9121 66.0781 10.8423 65.8354 10.705C65.5919 10.567 65.4271 10.3888 65.3388 10.1699C65.2512 9.9509 65.2193 9.70595 65.2438 9.43429C65.2683 9.16336 65.3047 8.89021 65.3536 8.61409L65.9749 5.08837H64.5127L64.7094 3.97499H66.1716L66.5064 2.07629H67.7712ZM48.4896 3.80353C49.0054 3.80353 49.4115 3.88889 49.7098 4.06035C50.0075 4.23181 50.225 4.4582 50.3638 4.73803C50.5011 5.01934 50.5738 5.33777 50.5812 5.69405C50.5887 6.05182 50.559 6.41998 50.4914 6.8015L49.7974 10.7407H48.5319L49.1962 6.97222C49.2415 6.71466 49.2682 6.46823 49.2778 6.22996C49.2875 5.99244 49.2563 5.78313 49.1843 5.60201C49.1131 5.42165 48.9943 5.27616 48.8266 5.16631C48.6573 5.0572 48.4191 5.00227 48.1095 5.00227C47.5001 5.00227 47.031 5.19303 46.7015 5.57307C46.3719 5.95459 46.1544 6.44448 46.049 7.04348L45.3973 10.7407H44.1318L44.756 7.20084C44.8132 6.87721 44.8488 6.58254 44.8629 6.31607C44.877 6.04885 44.8525 5.81801 44.7887 5.62354C44.7241 5.42833 44.6105 5.27616 44.4472 5.16631C44.2832 5.0572 44.0472 5.00227 43.7384 5.00227C43.5135 5.00227 43.2871 5.04755 43.0607 5.1381C42.8336 5.22866 42.625 5.36449 42.4335 5.54486C42.242 5.72597 42.075 5.95681 41.9317 6.23739C41.7885 6.51796 41.6831 6.84901 41.6163 7.22904L40.9972 10.7407H39.7324L40.9252 3.97499H42.1054L41.9191 5.03122H41.9473C41.9926 4.93547 42.0861 4.81671 42.2286 4.67419C42.3704 4.53168 42.5448 4.39585 42.7497 4.26744C42.9553 4.13903 43.1899 4.02991 43.4548 3.93936C43.7191 3.8488 44.0011 3.80353 44.301 3.80353C44.7976 3.80353 45.1962 3.90818 45.4968 4.1175C45.7967 4.32682 46.0179 4.64079 46.1596 5.05942C46.4491 4.64079 46.8091 4.32682 47.2396 4.1175C47.6701 3.90818 48.0865 3.80353 48.4896 3.80353ZM62.9544 3.80353C63.1607 3.80353 63.3433 3.83247 63.5014 3.88889L63.2015 5.27394C63.1028 5.24499 63.0041 5.22124 62.9046 5.20194C62.8052 5.18338 62.7035 5.17373 62.6003 5.17373C61.982 5.17373 61.4773 5.35039 61.0876 5.70222C60.6972 6.05405 60.4374 6.60109 60.306 7.34335L59.707 10.7407H58.4422L59.635 3.97499H60.8998L60.7165 5.01637H60.7447C60.8605 4.83601 61.0022 4.67197 61.1685 4.52426C61.3355 4.37655 61.5144 4.25111 61.7066 4.14571C61.8981 4.04179 62.1023 3.95866 62.3197 3.89631C62.5365 3.8347 62.748 3.80353 62.9544 3.80353ZM56.2749 7.48638H55.6002C55.3003 7.48638 54.9908 7.50271 54.6701 7.53611C54.3502 7.56951 54.0533 7.63335 53.7794 7.72836C53.504 7.82411 53.2702 7.95697 53.0758 8.12844C52.8813 8.2999 52.761 8.51886 52.7143 8.78533C52.6452 9.17576 52.7247 9.45633 52.9518 9.62705C53.1797 9.79777 53.5137 9.88387 53.9538 9.88387C54.3005 9.88387 54.6063 9.82523 54.8705 9.70573C55.1355 9.58697 55.3597 9.43258 55.543 9.24182C55.7264 9.05106 55.8718 8.83952 55.9787 8.60645C56.0856 8.37338 56.1583 8.14254 56.1984 7.91392L56.2749 7.48638ZM7.00245 7.30521C7.00245 5.22095 5.39695 3.7832 3.50123 3.7832C2.77159 3.7832 2.04195 4.07046 1.60476 4.50171L1.53128 4.57371L1.44443 4.50171L1.31305 3.92646H0V13.5654H1.44443V10.1087L1.53128 10.0367L1.60476 10.1087C2.04195 10.54 2.78569 10.8272 3.50123 10.8272C5.39695 10.8272 7.00245 9.39021 7.00245 7.30521ZM28.5682 10.684V0.895081H27.1097V4.50171L27.0369 4.57371L26.9634 4.50171C26.5263 4.07046 25.7825 3.7832 25.0677 3.7832C23.1713 3.7832 21.5665 5.22095 21.5665 7.30521C21.5665 9.38947 23.1713 10.8272 25.0677 10.8272C25.7966 10.8272 26.5263 10.54 26.9634 10.1087L27.0369 10.0367L27.1097 10.1087L27.2552 10.684H28.5682ZM13.2996 6.44761C13.2996 4.64838 12.3792 3.75396 10.5392 3.75396C9.22091 3.75396 8.21886 4.48508 7.93013 5.63558L9.23501 5.9065C9.46808 5.29785 9.89414 4.99946 10.5258 4.99946C11.3081 4.99946 11.8715 5.37876 11.8715 6.19079V6.48843H10.6765C8.87799 6.48843 7.68295 7.32718 7.68295 8.72114C7.68295 10.075 8.58925 10.792 9.81175 10.792C10.7589 10.792 11.4729 10.4536 11.9539 9.79073L12.0912 10.6837H13.2996V6.44761ZM35.3444 6.44761C35.3444 4.64838 34.424 3.75396 32.584 3.75396C31.2657 3.75396 30.2637 4.48508 29.9749 5.63558L31.2798 5.9065C31.5136 5.29785 31.9389 4.99946 32.5706 4.99946C33.3529 4.99946 33.9163 5.37876 33.9163 6.19079V6.48843H32.7213C30.9228 6.48843 29.7278 7.32718 29.7278 8.72114C29.7278 10.075 30.6341 10.792 31.8566 10.792C32.8037 10.792 33.5177 10.4536 33.9987 9.79073L34.136 10.6837H35.3444V6.44761ZM20.6262 6.51397C20.6262 4.93296 19.6049 3.7832 17.8546 3.7832C17.2712 3.7832 16.5416 4.07046 16.2499 4.50171L16.1771 4.57371L16.1036 4.50171L15.9582 3.92646H14.6451V10.684H16.1036V6.60081C16.1333 5.76651 16.8474 5.07696 17.7084 5.07696C18.6711 5.07696 19.1231 5.59431 19.1669 6.51397V10.684H20.6262V6.51397ZM10.6215 7.66565H11.8715V7.81485C11.8715 8.36931 11.6926 8.78943 11.3222 9.10043C10.9652 9.39808 10.5392 9.54727 10.0589 9.54727C9.49555 9.54727 9.19345 9.2088 9.19345 8.72114C9.19345 8.07167 9.74346 7.66565 10.6215 7.66565ZM32.6664 7.66565H33.9163V7.81485C33.9163 8.36931 33.7374 8.78943 33.367 9.10043C33.01 9.39808 32.584 9.54727 32.1037 9.54727C31.5404 9.54727 31.2383 9.2088 31.2383 8.72114C31.2383 8.07167 31.7883 7.66565 32.6664 7.66565ZM1.31305 7.30521C1.31305 6.08271 2.18817 5.07696 3.42848 5.07696C4.81354 5.07696 5.54318 6.08271 5.54318 7.30521C5.54318 8.52771 4.81354 9.53421 3.42848 9.53421C2.18817 9.53421 1.31305 8.52771 1.31305 7.30521ZM23.0102 7.30521C23.0102 6.08271 23.7547 5.07696 25.1397 5.07696C26.38 5.07696 27.2552 6.08271 27.2552 7.30521C27.2552 8.52771 26.38 9.53347 25.1397 9.53347C23.7547 9.53347 23.0102 8.52771 23.0102 7.30521Z" fill="white"/>
</g>
<defs>
<clipPath id="clip0_307_127">
<rect width="72.7412" height="13.9285" fill="white"/>
</clipPath>
</defs>
</svg>
