<svg width="73" height="14" viewBox="0 0 73 14" fill="none" xmlns="http://www.w3.org/2000/svg">
<g clip-path="url(#clip0_307_128)">
<path fill-rule="evenodd" clip-rule="evenodd" d="M36.0766 13.9285L38.5149 0H72.7411L70.3206 13.9285H36.0766ZM55.321 3.8033C55.8087 3.8033 56.2169 3.86565 56.5472 3.98887C56.8768 4.11282 57.1351 4.27909 57.3229 4.48841C57.5114 4.69772 57.6354 4.93821 57.6947 5.20914C57.7549 5.4808 57.7593 5.7636 57.7074 6.05902L57.098 9.51274C57.0557 9.75101 57.0223 9.96997 56.9963 10.1696C56.9703 10.3693 56.951 10.5601 56.9376 10.7404H55.8131C55.8458 10.3983 55.8918 10.0553 55.9519 9.71315H55.9237C55.5652 10.1511 55.1777 10.4599 54.7621 10.641C54.3457 10.8213 53.8855 10.9119 53.3793 10.9119C53.0697 10.9119 52.7825 10.8688 52.5168 10.7835C52.2503 10.6981 52.0269 10.569 51.8465 10.3983C51.6654 10.2268 51.537 10.0153 51.459 9.76288C51.3818 9.51126 51.3729 9.21807 51.4316 8.88479C51.5088 8.44761 51.6691 8.08093 51.9133 7.78625C52.1568 7.49158 52.4618 7.25034 52.827 7.06478C53.193 6.87922 53.6056 6.74635 54.0651 6.66545C54.5238 6.58454 55.007 6.54446 55.5132 6.54446H56.4403L56.4908 6.25869C56.5212 6.08723 56.5183 5.91577 56.4834 5.74505C56.4478 5.57359 56.3765 5.4192 56.2696 5.28114C56.1627 5.14308 56.0187 5.03322 55.8361 4.95306C55.6535 4.87141 55.4264 4.83133 55.1547 4.83133C54.9105 4.83133 54.6938 4.85508 54.5023 4.90259C54.3108 4.95009 54.1341 5.00947 53.9716 5.08073C53.809 5.15273 53.6583 5.23586 53.5195 5.33087C53.4396 5.38591 53.3611 5.43921 53.2845 5.49119L53.2839 5.49161C53.2285 5.52922 53.1742 5.56614 53.121 5.60253L52.5027 4.80238C52.9176 4.46985 53.3733 4.21971 53.8714 4.05344C54.3694 3.88718 54.8526 3.8033 55.321 3.8033ZM67.7711 2.07629L67.4363 3.97499H69.2504L69.0537 5.08837H67.2404L66.6993 8.15686C66.6651 8.34762 66.6369 8.53541 66.6132 8.72098C66.5902 8.90654 66.5961 9.07281 66.631 9.22052C66.6659 9.36823 66.7386 9.48625 66.8492 9.5768C66.9598 9.6681 67.1365 9.71263 67.3807 9.71263C67.5306 9.71263 67.6872 9.69853 67.852 9.67032C68.0161 9.64138 68.1704 9.58942 68.3152 9.51297L68.1096 10.6835C67.9441 10.7696 67.7392 10.8282 67.4942 10.8616C67.2493 10.895 67.0608 10.9121 66.9301 10.9121C66.4425 10.9121 66.078 10.8423 65.8353 10.705C65.5918 10.567 65.4271 10.3888 65.3387 10.1699C65.2511 9.9509 65.2192 9.70595 65.2437 9.43429C65.2682 9.16336 65.3046 8.89021 65.3536 8.61409L65.9748 5.08837H64.5126L64.7093 3.97499H66.1715L66.5063 2.07629H67.7711ZM48.4895 3.80353C49.0054 3.80353 49.4114 3.88889 49.7098 4.06035C50.0074 4.23181 50.2249 4.4582 50.3637 4.73803C50.501 5.01934 50.5737 5.33777 50.5812 5.69405C50.5886 6.05182 50.5589 6.41998 50.4914 6.8015L49.7974 10.7407H48.5318L49.1961 6.97222C49.2414 6.71466 49.2681 6.46823 49.2778 6.22996C49.2874 5.99244 49.2562 5.78313 49.1842 5.60201C49.113 5.42165 48.9942 5.27616 48.8265 5.16631C48.6572 5.0572 48.419 5.00227 48.1095 5.00227C47.5001 5.00227 47.031 5.19303 46.7014 5.57307C46.3718 5.95459 46.1544 6.44448 46.049 7.04348L45.3973 10.7407H44.1317L44.7559 7.20084C44.8131 6.87721 44.8487 6.58254 44.8628 6.31607C44.8769 6.04885 44.8524 5.81801 44.7886 5.62354C44.724 5.42833 44.6105 5.27616 44.4472 5.16631C44.2831 5.0572 44.0471 5.00227 43.7383 5.00227C43.5134 5.00227 43.287 5.04755 43.0606 5.1381C42.8335 5.22866 42.6249 5.36449 42.4334 5.54486C42.2419 5.72597 42.0749 5.95681 41.9317 6.23739C41.7884 6.51796 41.683 6.84901 41.6162 7.22904L40.9972 10.7407H39.7323L40.9252 3.97499H42.1053L41.919 5.03122H41.9472C41.9925 4.93547 42.086 4.81671 42.2286 4.67419C42.3703 4.53168 42.5448 4.39585 42.7496 4.26744C42.9552 4.13903 43.1898 4.02991 43.4548 3.93936C43.719 3.8488 44.0011 3.80353 44.3009 3.80353C44.7975 3.80353 45.1961 3.90818 45.4967 4.1175C45.7966 4.32682 46.0178 4.64079 46.1595 5.05942C46.449 4.64079 46.809 4.32682 47.2395 4.1175C47.67 3.90818 48.0864 3.80353 48.4895 3.80353ZM62.9543 3.80353C63.1606 3.80353 63.3432 3.83247 63.5013 3.88889L63.2015 5.27394C63.1028 5.24499 63.004 5.22124 62.9046 5.20194C62.8051 5.18338 62.7034 5.17373 62.6002 5.17373C61.9819 5.17373 61.4772 5.35039 61.0875 5.70222C60.6971 6.05405 60.4373 6.60109 60.3059 7.34335L59.7069 10.7407H58.4421L59.6349 3.97499H60.8997L60.7164 5.01637H60.7446C60.8604 4.83601 61.0022 4.67197 61.1684 4.52426C61.3354 4.37655 61.5143 4.25111 61.7066 4.14571C61.8981 4.04179 62.1022 3.95866 62.3197 3.89631C62.5364 3.8347 62.748 3.80353 62.9543 3.80353ZM56.2748 7.48638H55.6001C55.3002 7.48638 54.9907 7.50271 54.67 7.53611C54.3501 7.56951 54.0532 7.63335 53.7793 7.72836C53.504 7.82411 53.2701 7.95697 53.0757 8.12844C52.8812 8.2999 52.761 8.51886 52.7142 8.78533C52.6452 9.17576 52.7246 9.45633 52.9517 9.62705C53.1796 9.79777 53.5136 9.88387 53.9538 9.88387C54.3004 9.88387 54.6062 9.82523 54.8705 9.70573C55.1354 9.58697 55.3596 9.43258 55.5429 9.24182C55.7263 9.05106 55.8718 8.83952 55.9786 8.60645C56.0855 8.37338 56.1583 8.14254 56.1984 7.91392L56.2748 7.48638ZM7.00238 7.30521C7.00238 5.22095 5.39687 3.7832 3.50115 3.7832C2.77151 3.7832 2.04187 4.07046 1.60468 4.50171L1.5312 4.57371L1.44436 4.50171L1.31298 3.92646H-7.62939e-05V13.5654H1.44436V10.1087L1.5312 10.0367L1.60468 10.1087C2.04187 10.54 2.78561 10.8272 3.50115 10.8272C5.39687 10.8272 7.00238 9.39021 7.00238 7.30521ZM28.5681 10.684V0.895081H27.1096V4.50171L27.0369 4.57371L26.9634 4.50171C26.5262 4.07046 25.7824 3.7832 25.0676 3.7832C23.1712 3.7832 21.5664 5.22095 21.5664 7.30521C21.5664 9.38947 23.1712 10.8272 25.0676 10.8272C25.7965 10.8272 26.5262 10.54 26.9634 10.1087L27.0369 10.0367L27.1096 10.1087L27.2551 10.684H28.5681ZM13.2995 6.44761C13.2995 4.64838 12.3791 3.75396 10.5391 3.75396C9.22083 3.75396 8.21879 4.48508 7.93005 5.63558L9.23494 5.9065C9.46801 5.29785 9.89406 4.99946 10.5257 4.99946C11.3081 4.99946 11.8714 5.37876 11.8714 6.19079V6.48843H10.6764C8.87791 6.48843 7.68288 7.32718 7.68288 8.72114C7.68288 10.075 8.58917 10.792 9.81167 10.792C10.7588 10.792 11.4728 10.4536 11.9538 9.79073L12.0911 10.6837H13.2995V6.44761ZM35.3443 6.44761C35.3443 4.64838 34.4239 3.75396 32.5839 3.75396C31.2656 3.75396 30.2636 4.48508 29.9749 5.63558L31.2797 5.9065C31.5136 5.29785 31.9389 4.99946 32.5705 4.99946C33.3529 4.99946 33.9162 5.37876 33.9162 6.19079V6.48843H32.7212C30.9227 6.48843 29.7277 7.32718 29.7277 8.72114C29.7277 10.075 30.634 10.792 31.8565 10.792C32.8036 10.792 33.5176 10.4536 33.9986 9.79073L34.1359 10.6837H35.3443V6.44761ZM20.6261 6.51397C20.6261 4.93296 19.6048 3.7832 17.8545 3.7832C17.2711 3.7832 16.5415 4.07046 16.2498 4.50171L16.177 4.57371L16.1036 4.50171L15.9581 3.92646H14.645V10.684H16.1036V6.60081C16.1332 5.76651 16.8473 5.07696 17.7083 5.07696C18.671 5.07696 19.1231 5.59431 19.1669 6.51397V10.684H20.6261V6.51397ZM10.6215 7.66565H11.8714V7.81485C11.8714 8.36931 11.6925 8.78943 11.3222 9.10043C10.9651 9.39808 10.5391 9.54727 10.0588 9.54727C9.49547 9.54727 9.19337 9.2088 9.19337 8.72114C9.19337 8.07167 9.74338 7.66565 10.6215 7.66565ZM32.6663 7.66565H33.9162V7.81485C33.9162 8.36931 33.7374 8.78943 33.367 9.10043C33.0099 9.39808 32.5839 9.54727 32.1036 9.54727C31.5403 9.54727 31.2382 9.2088 31.2382 8.72114C31.2382 8.07167 31.7882 7.66565 32.6663 7.66565ZM1.31298 7.30521C1.31298 6.08271 2.1881 5.07696 3.42841 5.07696C4.81346 5.07696 5.5431 6.08271 5.5431 7.30521C5.5431 8.52771 4.81346 9.53421 3.42841 9.53421C2.1881 9.53421 1.31298 8.52771 1.31298 7.30521ZM23.0101 7.30521C23.0101 6.08271 23.7546 5.07696 25.1396 5.07696C26.38 5.07696 27.2551 6.08271 27.2551 7.30521C27.2551 8.52771 26.38 9.53347 25.1396 9.53347C23.7546 9.53347 23.0101 8.52771 23.0101 7.30521Z" fill="#FF2B85"/>
</g>
<defs>
<clipPath id="clip0_307_128">
<rect width="72.7412" height="13.9285" fill="white"/>
</clipPath>
</defs>
</svg>
