<svg width="18" height="20" viewBox="0 0 18 20" fill="none" xmlns="http://www.w3.org/2000/svg">
<path fill-rule="evenodd" clip-rule="evenodd" d="M11.7503 0C12.2631 0 12.6858 0.38604 12.7436 0.883379L12.7503 1V2.349C12.7504 2.56988 12.9294 2.74896 13.1503 2.74908L17.2501 2.74986C17.6644 2.74994 18.0001 3.08576 18.0001 3.5V3.64809C18.0001 3.98052 17.7306 4.25 17.3982 4.25H17.1457C16.9456 4.25 16.7762 4.3979 16.7493 4.5962L14.9615 17.769C14.8269 18.7605 13.9802 19.5 12.9796 19.5H5.02099C4.02037 19.5 3.17373 18.7605 3.03916 17.769L1.25129 4.5962C1.22438 4.3979 1.05505 4.25 0.854928 4.25H0.602305C0.26983 4.25 0.000305176 3.98048 0.000305176 3.648V3.5C0.000305176 3.08576 0.336069 2.74994 0.750305 2.74986L4.85031 2.74908C5.07119 2.74896 5.25023 2.56988 5.25031 2.349V1C5.25031 0.487164 5.63635 0.0644928 6.13368 0.0067277L6.25031 0H11.7503ZM14.6964 4.25H3.31292C3.092 4.25 2.91292 4.42909 2.91292 4.65C2.91292 4.66673 2.91397 4.68345 2.91606 4.70005L4.54917 17.65C4.57439 17.85 4.74447 18 4.94603 18H13.0538C13.2553 18 13.4253 17.8502 13.4507 17.6503L15.0932 4.70033C15.121 4.48117 14.9659 4.28098 14.7467 4.25318C14.73 4.25106 14.7132 4.25 14.6964 4.25ZM7.00031 6.25C7.38 6.25 7.6938 6.53215 7.74346 6.89823L7.75031 7V15C7.75031 15.4142 7.41452 15.75 7.00031 15.75C6.62061 15.75 6.30681 15.4678 6.25715 15.1018L6.25031 15V7C6.25031 6.58579 6.58609 6.25 7.00031 6.25ZM11.0003 6.25C11.38 6.25 11.6938 6.53215 11.7435 6.89823L11.7503 7V15C11.7503 15.4142 11.4145 15.75 11.0003 15.75C10.6206 15.75 10.3068 15.4678 10.2572 15.1018L10.2503 15V7C10.2503 6.58579 10.5861 6.25 11.0003 6.25ZM10.8503 1.5H7.1503C6.92939 1.5 6.75031 1.67909 6.75031 1.9V2.349C6.75031 2.56991 6.92939 2.749 7.1503 2.749H10.8503C11.0712 2.749 11.2503 2.56991 11.2503 2.349V1.9C11.2503 1.67909 11.0712 1.5 10.8503 1.5Z" fill="#E21B70"/>
</svg>
