<svg width="20" height="16" viewBox="0 0 20 16" fill="none" xmlns="http://www.w3.org/2000/svg">
<path fill-rule="evenodd" clip-rule="evenodd" d="M16.3384 0.438338C19.1016 1.75361 20.3527 5.19469 19.1327 8.12421C17.5851 11.3674 14.697 13.9595 10.4683 15.9005C10.2141 16.0143 9.92502 16.0305 9.66089 15.9491L9.53065 15.9C5.30256 13.9591 2.4148 11.3671 0.86735 8.12421C-0.352692 5.19469 0.898355 1.75361 3.66164 0.438338C5.55196 -0.461414 7.48845 0.123192 9.04023 1.29285C9.15184 1.37698 9.2861 1.48788 9.443 1.62554L9.72929 1.88324C9.88227 2.02397 10.1175 2.02407 10.2706 1.88348L10.5865 1.60038C10.731 1.47451 10.8556 1.37218 10.9603 1.29338C12.5155 0.122013 14.45 -0.460505 16.3384 0.438338ZM15.6937 1.79274C14.5158 1.23207 13.1884 1.49301 11.8627 2.49154L11.7118 2.61193C11.5969 2.70757 11.4536 2.83367 11.2852 2.98833C11.0777 3.17884 10.7315 3.45514 10.2466 3.81724L10.2467 3.81729C10.1018 3.92549 9.90231 3.92304 9.76012 3.81131C9.3453 3.48537 9.04234 3.24931 8.85126 3.10313L8.7202 2.99308L8.56281 2.84994C8.38181 2.68743 8.23781 2.56641 8.13735 2.49069C6.81396 1.49318 5.48497 1.23172 4.30631 1.79274C2.2754 2.75941 1.33511 5.34576 2.22112 7.47822C3.55605 10.2758 6.04259 12.5647 9.74057 14.3415L10 14.463L10.2585 14.3419C13.82 12.631 16.2569 10.4472 17.5981 7.84913L17.7479 7.54753C18.6362 5.41456 17.7816 2.92068 15.8809 1.88805L15.6937 1.79274Z" fill="#E21B70"/>
</svg>
