<svg width="16" height="18" viewBox="0 0 16 18" fill="none" xmlns="http://www.w3.org/2000/svg">
<path fill-rule="evenodd" clip-rule="evenodd" d="M7.75878 10.9048C11.3933 10.9048 14.2013 13.1043 15.4623 16.9403C15.5378 17.1688 15.4983 17.4198 15.3573 17.6148C15.2163 17.8098 14.9903 17.9248 14.7498 17.9248H0.74978C0.50928 17.9248 0.283279 17.8098 0.142779 17.6148C0.00127949 17.4198 -0.0377205 17.1688 0.0377795 16.9403C1.27978 13.1613 4.16628 10.9048 7.75878 10.9048ZM7.75878 12.4048C5.26628 12.4048 3.24378 13.7018 2.04378 16.0153C1.94728 16.2013 2.08978 16.4248 2.29978 16.4248H13.2003C13.4103 16.4248 13.5528 16.2013 13.4563 16.0153C12.2583 13.7018 10.2418 12.4048 7.75878 12.4048ZM7.76758 0C10.5931 0 12.8926 2.299 12.8926 5.1245C12.8926 7.9505 10.5931 10.2495 7.76758 10.2495C4.94208 10.2495 2.64258 7.9505 2.64258 5.1245C2.64258 2.299 4.94208 0 7.76758 0ZM7.76758 1.5C5.76858 1.5 4.14258 3.126 4.14258 5.1245C4.14258 7.1235 5.76858 8.7495 7.76758 8.7495C9.76658 8.7495 11.3926 7.1235 11.3926 5.1245C11.3926 3.126 9.76658 1.5 7.76758 1.5Z" fill="#E21B70"/>
</svg>
